<svg xmlns="http://www.w3.org/2000/svg" version="1.0" viewBox="0 0 452.73 641.82"><defs>
    <linearGradient id="b" x1="484.99" x2="688.69" y1="456.18" y2="325.43" gradientUnits="userSpaceOnUse">
        <stop offset="0" style="stop-color:#d5c0a5"/>
        <stop offset="1" style="stop-color:#d5c0a5;stop-opacity:0"/>
    </linearGradient>
    <linearGradient id="a" x1="347.8" x2="442.23" y1="294.95" y2="182.09" gradientUnits="userSpaceOnUse">
        <stop offset="0" style="stop-color:#fff"/>
        <stop offset="1" style="stop-color:#fff;stop-opacity:0"/>
    </linearGradient></defs>
    <path d="M557.04 69.108c-23.04.03-84.91 9.617-109.66 36.752-17.16 15.92-20.16 57.25-10.16 75.59-18.13.14-43.87-3.97-66.97 27.38-23.85 32.37-22.44 74.18-9.31 97.84 48.54 16.99 50.95-5.53 81.41-33.81-7.01 8.52-15.02 17.21-23.94 25.28-12.46 11.27-3.09 15.67 5.13 17.37-16.66-1.91-52.89-5.53-67.32-2.46-19 4.03-15.89 12.62 0 25.34 14.53 11.63 33.38 14.97 57.57 32.25 47.5 18.11 34.93 43.62 39.15 84.12C458.7 477.8 476 493.92 476 493.92l-43.78-2.28-25.34 29.94 39.16 11.5 177.37-9.22s35.96-42 41.44-99.03c12.43-129.53-38.79-221.58-152-168.13-15.4-7.91-29.71-46.91-41.81-25.47 5.89-16.61 4.05-32.39-10.69-43.18 20.59 5.64 16.99-40.67 46.53-65.32 8.43-9.31 100.77-53.149 50.16-53.622z" style="fill:#fff" transform="translate(-465.52 -92.429) scale(1.3774)"/>
    <path d="M663.27 403.2H448.42c1.24 11.89.35 25.62 2.03 41.81 5.76 23.04 23.07 39.16 23.07 39.16l-43.78-2.28-25.35 29.94 39.16 11.5 177.37-9.22s35.96-42 41.44-99.03c.39-4.02.65-7.94.91-11.88zM374.56 322.59c1.46.25 2.95.52 4.31.65-10.91-.47-21.27-.52-27.44.79-19 4.03-15.89 12.62 0 25.34 14.53 11.63 33.38 14.97 57.56 32.25 6.39 2.44 11.63 5.03 16.04 7.75h236.65c-.77-24.82-4.36-47.39-10.65-66.78H409.59c2.16 1.96 5.72 3.19 9.15 3.9-8.06-.92-20.76-2.22-33.31-3 2.45-.07 4.66-.43 6.78-.9h-17.65zM536.12 80.09c-23.04.03-84.9 9.617-109.65 36.75-16.22 15.05-19.64 52.58-11.53 72.16h39.62c6.96-14.1 12.18-39.24 31.41-55.28 8.43-9.32 100.77-53.157 50.15-53.63z" style="stroke:#000;stroke-width:.67914;fill:#b07b12" transform="translate(-465.52 -92.429) scale(1.3774)"/>
    <path d="M554.84 67.445c-23.04.03-84.91 9.616-109.65 36.745-17.17 15.93-20.16 57.25-10.16 75.6-18.13.13-43.87-3.98-66.97 27.37-23.85 32.38-22.45 74.19-9.31 97.85 48.53 16.99 50.94-5.53 81.4-33.82-7.01 8.53-15.02 17.22-23.93 25.29-12.46 11.27-3.1 15.67 5.12 17.37-16.66-1.92-52.88-5.53-67.31-2.47-19 4.03-15.89 12.62 0 25.35 14.53 11.62 33.38 14.97 57.56 32.25 47.5 18.11 34.94 43.61 39.16 84.12 5.76 23.03 23.06 39.16 23.06 39.16l-43.78-2.28-25.34 29.93 39.15 11.5 177.38-9.22s35.96-41.99 41.43-99.03c12.44-129.52-38.79-221.58-152-168.12-15.4-7.91-29.7-46.91-41.81-25.47 5.89-16.61 4.05-32.39-10.69-43.19 20.59 5.65 17-40.66 46.54-65.31 8.42-9.31 100.77-53.153 50.15-53.625z" style="stroke:#000;stroke-width:.67914;fill:#b07b12" transform="translate(-465.52 -92.429) scale(1.3774)"/>
    <path d="M549.72 73.413c1.17-.017 2.09-.005 2.75.063 33.82 3.467-38.18 28.004-60.88 50.504-22.75 22.54-28.6 30.85-33.75 40.93-9.59-26.35-10.01-36.02-4.03-57.09 6.87-24.226 78.33-34.148 95.91-34.407z" style="fill:#7c560b" transform="translate(-465.52 -92.429) scale(1.3774)"/>
    <path d="M376.06 264.97c-8.55-6.51-13.03-23.62-3.26-37.46s33.8-24.43 42.35-17.92c8.55 6.52-2.98 19.77-8.15 43.98-3.53 16.57-22.39 17.91-30.94 11.4z" style="fill-rule:evenodd;fill:url(#a)" transform="translate(-465.52 -92.429) scale(1.3774)"/>
    <path d="M767.58 397.35c-5.5 6.23-7.75 10.91-12.64 9.11-4.04-1.48-8.66-9.29-.83-18.74 4.06-4.9 10.8-5.62 13.32-3.76 3.46 2.56 5.05 7.84.15 13.39z" style="stroke:#000;stroke-width:.67914;fill:#000" transform="scale(1.3774) rotate(-7.848 -1196.004 5488.446)"/>
    <path d="M764.67 392.1a3.156 2.647 0 1 1-6.31 0 3.156 2.647 0 1 1 6.31 0z" style="fill:#fff" transform="rotate(-7.848 -2335.963 9069.137) scale(1.64392)"/>
    <path d="M518.82 345.35c-15.76.19-10.63 41.65-39.97 42.06-28.33-7.76-62.88-22.38-79.03-25.62 3.56 2.12 7.26 4.48 11.09 7.22 47.5 18.11 34.93 43.61 39.16 84.12 5.23 20.95 19.9 36.04 22.53 38.63 50.87 2.62 44 9.65 71.37 21.06 0 0-22.8-26.07-16.29-47.24 6.52-21.17 48.43 18.23 39.1-32.56-5.46-29.74-19.54-76.15-42.34-86.33-2.14-.95-3.99-1.36-5.62-1.34z" style="fill:url(#b)" transform="translate(-465.52 -92.429) scale(1.3774)"/>
</svg>