<svg xmlns:inkscape="http://www.inkscape.org/namespaces/inkscape" xmlns:rdf="http://www.w3.org/1999/02/22-rdf-syntax-ns#" xmlns="http://www.w3.org/2000/svg" xmlns:sodipodi="http://sodipodi.sourceforge.net/DTD/sodipodi-0.dtd" xmlns:cc="http://web.resource.org/cc/" xmlns:xlink="http://www.w3.org/1999/xlink" xmlns:dc="http://purl.org/dc/elements/1.1/" xmlns:svg="http://www.w3.org/2000/svg" xmlns:ns1="http://sozi.baierouge.fr" id="svg7957" sodipodi:docname="rabbit.svg" viewBox="0 0 452.73 641.82" sodipodi:version="0.32" version="1.0" inkscape:output_extension="org.inkscape.output.svg.inkscape" inkscape:version="0.45.1" sodipodi:docbase="\seer\clipart">
  <defs id="defs7959">
    <linearGradient id="linearGradient4158" y2="325.43" gradientUnits="userSpaceOnUse" x2="688.69" y1="456.18" x1="484.99" inkscape:collect="always">
      <stop id="stop4154" style="stop-color:#d5c0a5" offset="0"/>
      <stop id="stop4156" style="stop-color:#d5c0a5;stop-opacity:0" offset="1"/>
    </linearGradient>
    <linearGradient id="linearGradient4166" y2="182.09" gradientUnits="userSpaceOnUse" x2="442.23" y1="294.95" x1="347.8" inkscape:collect="always">
      <stop id="stop4162" style="stop-color:#ffffff" offset="0"/>
      <stop id="stop4164" style="stop-color:#ffffff;stop-opacity:0" offset="1"/>
    </linearGradient>
  </defs>
  <sodipodi:namedview id="namedview7961" bordercolor="#666666" inkscape:pageshadow="2" inkscape:window-y="64" pagecolor="#ffffff" inkscape:window-height="573" inkscape:zoom="0.30699632" inkscape:window-x="31" borderopacity="1.0" inkscape:current-layer="layer1" inkscape:cx="732.09222" inkscape:cy="379.38108" inkscape:window-width="744" inkscape:pageopacity="0.0" inkscape:document-units="mm"/>
  <g id="layer1" inkscape:label="Layer 1" inkscape:groupmode="layer" transform="translate(-188.03 -45.98)">
    <g id="g4170" transform="matrix(1.3774 0 0 1.3774 -277.49 -46.449)">
      <path id="path4168" sodipodi:nodetypes="cccsccscsscccccccsccccc" style="fill:#ffffff" d="m557.04 69.108c-23.04 0.03-84.91 9.617-109.66 36.752-17.16 15.92-20.16 57.25-10.16 75.59-18.13 0.14-43.87-3.97-66.97 27.38-23.85 32.37-22.44 74.18-9.31 97.84 48.54 16.99 50.95-5.53 81.41-33.81-7.01 8.52-15.02 17.21-23.94 25.28-12.46 11.27-3.09 15.67 5.13 17.37-16.66-1.91-52.89-5.53-67.32-2.46-19 4.03-15.89 12.62 0 25.34 14.53 11.63 33.38 14.97 57.57 32.25 47.5 18.11 34.93 43.62 39.15 84.12 5.76 23.04 23.06 39.16 23.06 39.16l-43.78-2.28-25.34 29.94 39.16 11.5 177.37-9.22s35.96-42 41.44-99.03c12.43-129.53-38.79-221.58-152-168.13-15.4-7.91-29.71-46.91-41.81-25.47 5.89-16.61 4.05-32.39-10.69-43.18 20.59 5.64 16.99-40.67 46.53-65.32 8.43-9.31 100.77-53.149 50.16-53.622z"/>
      <g id="g4140">
        <path id="path4138" style="stroke:#000000;stroke-width:.67914;fill:#b07b12" d="m663.27 403.2h-214.85c1.24 11.89 0.35 25.62 2.03 41.81 5.76 23.04 23.07 39.16 23.07 39.16l-43.78-2.28-25.35 29.94 39.16 11.5 177.37-9.22s35.96-42 41.44-99.03c0.39-4.02 0.65-7.94 0.91-11.88z"/>
        <path id="path4131" style="stroke:#000000;stroke-width:.67914;fill:#b07b12" d="m374.56 322.59c1.46 0.25 2.95 0.52 4.31 0.65-10.91-0.47-21.27-0.52-27.44 0.79-19 4.03-15.89 12.62 0 25.34 14.53 11.63 33.38 14.97 57.56 32.25 6.39 2.44 11.63 5.03 16.04 7.75h236.65c-0.77-24.82-4.36-47.39-10.65-66.78h-241.44c2.16 1.96 5.72 3.19 9.15 3.9-8.06-0.92-20.76-2.22-33.31-3 2.45-0.07 4.66-0.43 6.78-0.9h-17.65z"/>
        <path id="path4124" style="stroke:#000000;stroke-width:.67914;fill:#b07b12" d="m536.12 80.09c-23.04 0.03-84.9 9.617-109.65 36.75-16.22 15.05-19.64 52.58-11.53 72.16h39.62c6.96-14.1 12.18-39.24 31.41-55.28 8.43-9.32 100.77-53.157 50.15-53.63z"/>
        <path id="path9957" sodipodi:nodetypes="cccsccscsscccccccsccccc" style="stroke:#000000;stroke-width:.67914;fill:#b07b12" d="m554.84 67.445c-23.04 0.03-84.91 9.616-109.65 36.745-17.17 15.93-20.16 57.25-10.16 75.6-18.13 0.13-43.87-3.98-66.97 27.37-23.85 32.38-22.45 74.19-9.31 97.85 48.53 16.99 50.94-5.53 81.4-33.82-7.01 8.53-15.02 17.22-23.93 25.29-12.46 11.27-3.1 15.67 5.12 17.37-16.66-1.92-52.88-5.53-67.31-2.47-19 4.03-15.89 12.62 0 25.35 14.53 11.62 33.38 14.97 57.56 32.25 47.5 18.11 34.94 43.61 39.16 84.12 5.76 23.03 23.06 39.16 23.06 39.16l-43.78-2.28-25.34 29.93 39.15 11.5 177.38-9.22s35.96-41.99 41.43-99.03c12.44-129.52-38.79-221.58-152-168.12-15.4-7.91-29.7-46.91-41.81-25.47 5.89-16.61 4.05-32.39-10.69-43.19 20.59 5.65 17-40.66 46.54-65.31 8.42-9.31 100.77-53.153 50.15-53.625z"/>
        <path id="path7966" style="fill:#7c560b" d="m549.72 73.413c1.17-0.017 2.09-0.005 2.75 0.063 33.82 3.467-38.18 28.004-60.88 50.504-22.75 22.54-28.6 30.85-33.75 40.93-9.59-26.35-10.01-36.02-4.03-57.09 6.87-24.226 78.33-34.148 95.91-34.407z"/>
        <path id="path3153" sodipodi:nodetypes="cssss" style="fill-rule:evenodd;fill:url(#linearGradient4166)" d="m376.06 264.97c-8.55-6.51-13.03-23.62-3.26-37.46s33.8-24.43 42.35-17.92c8.55 6.52-2.98 19.77-8.15 43.98-3.53 16.57-22.39 17.91-30.94 11.4z"/>
        <g id="g11903" transform="matrix(.99063 -.13655 .13655 .99063 -422.68 -44.801)">
          <path id="path11899" sodipodi:nodetypes="cssss" style="stroke:#000000;stroke-width:.67914;fill:#000000" d="m767.58 397.35c-5.5 6.23-7.75 10.91-12.64 9.11-4.04-1.48-8.66-9.29-0.83-18.74 4.06-4.9 10.8-5.62 13.32-3.76 3.46 2.56 5.05 7.84 0.15 13.39z"/>
          <path id="path11901" sodipodi:rx="3.1555753" sodipodi:ry="2.6466115" style="fill:#ffffff" sodipodi:type="arc" d="m764.67 392.1a3.1556 2.6466 0 1 1 -6.31 0 3.1556 2.6466 0 1 1 6.31 0z" transform="matrix(1.1935 0 0 1.1935 -144.95 -78.536)" sodipodi:cy="392.09515" sodipodi:cx="761.5116"/>
        </g>
        <path id="path2179" sodipodi:nodetypes="cccccccsssc" style="fill:url(#linearGradient4158)" d="m518.82 345.35c-15.76 0.19-10.63 41.65-39.97 42.06-28.33-7.76-62.88-22.38-79.03-25.62 3.56 2.12 7.26 4.48 11.09 7.22 47.5 18.11 34.93 43.61 39.16 84.12 5.23 20.95 19.9 36.04 22.53 38.63 50.87 2.62 44 9.65 71.37 21.06 0 0-22.8-26.07-16.29-47.24 6.52-21.17 48.43 18.23 39.1-32.56-5.46-29.74-19.54-76.15-42.34-86.33-2.14-0.95-3.99-1.36-5.62-1.34z"/>
      </g>
    </g>
  </g>
  <metadata>
    <rdf:RDF>
      <cc:Work>
        <dc:format>image/svg+xml</dc:format>
        <dc:type rdf:resource="http://purl.org/dc/dcmitype/StillImage"/>
        <cc:license rdf:resource="http://creativecommons.org/licenses/publicdomain/"/>
        <dc:publisher>
          <cc:Agent rdf:about="http://openclipart.org/">
            <dc:title>Openclipart</dc:title>
          </cc:Agent>
        </dc:publisher>
        <dc:title>rabbit</dc:title>
        <dc:date>2007-09-24T02:14:32</dc:date>
        <dc:description>Rabbit using bezier curves</dc:description>
        <dc:source>https://openclipart.org/detail/6001/rabbit-by-jilagan</dc:source>
        <dc:creator>
          <cc:Agent>
            <dc:title>jilagan</dc:title>
          </cc:Agent>
        </dc:creator>
        <dc:subject>
          <rdf:Bag>
            <rdf:li>animal</rdf:li>
            <rdf:li>bunny</rdf:li>
            <rdf:li>color</rdf:li>
            <rdf:li>contour</rdf:li>
            <rdf:li>farm</rdf:li>
            <rdf:li>mammal</rdf:li>
            <rdf:li>pet</rdf:li>
            <rdf:li>rabbit</rdf:li>
          </rdf:Bag>
        </dc:subject>
      </cc:Work>
      <cc:License rdf:about="http://creativecommons.org/licenses/publicdomain/">
        <cc:permits rdf:resource="http://creativecommons.org/ns#Reproduction"/>
        <cc:permits rdf:resource="http://creativecommons.org/ns#Distribution"/>
        <cc:permits rdf:resource="http://creativecommons.org/ns#DerivativeWorks"/>
      </cc:License>
    </rdf:RDF>
  </metadata>
</svg>