<svg xmlns:rdf="http://www.w3.org/1999/02/22-rdf-syntax-ns#" xmlns="http://www.w3.org/2000/svg" xmlns:cc="http://creativecommons.org/ns#" xmlns:dc="http://purl.org/dc/elements/1.1/" id="svg4821" height="592.96mm" width="592.96mm" version="1.1" viewBox="0 0 2101.0471 2101.0471">
<defs id="defs4823">
<clipPath id="clipEmfPath1" clipPathUnits="userSpaceOnUse">
<path id="path6600" d="m-9.5995-1.3499h64.197v16.499h-64.197z"/>
</clipPath>
</defs>
<g id="layer1" transform="translate(-769.45 -1194)">
<g id="g4157" transform="matrix(.96446 0 0 .97187 496.89 1798.5)">
<path id="path4154" d="m1737.5 459.02a365.64 362.86 0 0 1 -731.29 0 365.64 362.86 0 1 1 731.29 0z" fill-rule="evenodd" stroke="#3860a1" stroke-width="2.0349" display="block" fill="#7e7eff"/>
<path id="path20" d="m1369.2 98.33c-17.01 0.02963-29.621 0.2147-39.986 0.72461a365.64 362.86 0 0 0 -147.45 50.338c-0.4834 0.32889-0.9605 0.63935-1.4454 0.97265-9.16 6.2963-9.5645 7.0446-3.0214 5.5859 14.724-3.2828 36.264-11.927 36.264-14.553 0-1.4651 2.7391-2.6641 6.086-2.6641s8.4458-1.1778 11.332-2.6172c6.5862-3.2852 24.469-9.5484 32.445-11.365 3.3242-0.75701 1.0291 0.82934-5.0996 3.5274-7.3407 3.2318-10.581 6.3681-9.498 9.1914 0.9644 2.5134-0.2107 4.2871-2.8418 4.2871-5.4603 0-12.942 8.4023-10.053 11.291 1.1433 1.1435 4.4593 0.5926 7.3692-1.2246 4.2901-2.6793 5.369-2.2649 5.705 2.1953 0.3403 4.5207-1.5688 5.3664-10.717 4.748-6.1217-0.41372-19.291 0.98259-29.264 3.1016-9.9727 2.119-21.994 3.8987-26.715 3.957-10.815 0.13387-31.689 14.541-34.078 23.52-0.9936 3.7349-5.3011 8.4936-9.5703 10.576-9.4182 4.5944-13.523 13.344-4.8418 10.32 3.1353-1.0922 0.7165 2.4299-5.375 7.8281-6.0915 5.3983-11.541 12.486-12.109 15.752-0.5681 3.2659-5.389 8.8732-10.713 12.461-5.3239 3.5878-8.8823 7.3227-7.9062 8.2988 0.9761 0.97611 8.0623-2.5765 15.746-7.8926 7.6838-5.316 15.039-9.68 16.346-9.7012 1.307-0.0199 3.4405-1.7564 4.7402-3.8594 3.119-5.0447 24.436-15.82 31.299-15.82 5.3868 0 6.8708 4.4729 5.7618 17.377-0.3214 3.7398 0.8258 6.7988 2.5507 6.7988s3.1368-2.1041 3.1368-4.7109 1.46-3.8105 3.2675-2.6934c1.7968 1.1103 2.4506 5.2721 1.4532 9.2461-1.0237 4.0785-0.4728 7.2246 1.2656 7.2246 4.6049 0 3.4262 11.912-2.6641 26.928-6.6333 16.352-3.5779 35.709 7.5293 47.693 4.0042 4.3206 7.2813 10.296 7.2813 13.279 0 2.9834 1.4148 6.3 3.1445 7.3691 1.7297 1.0692 2.3701 4.3875 1.4219 7.375-1.0528 3.317 0.075 6.1218 2.8984 7.2051 2.5427 0.97552 4.6231 3.6459 4.6231 5.9336s2.7187 6.6205 6.0429 9.6289c5.2639 4.7636 6.0449 4.8491 6.0449 0.64844 0-2.6524-1.453-5.7211-3.2285-6.8184-1.7754-1.0973-2.4976-3.8978-1.6054-6.2227s0.4043-4.2266-1.084-4.2266c-1.4884 0-4.8372-4.4204-7.4434-9.8223l-4.7383-9.8223 9.1817 10.578c5.0504 5.8174 10.145 11.937 11.32 13.6 8.6575 12.246 20.272 24.043 23.016 23.377 1.8101-0.43941 0.7745 1.1695-2.3008 3.5762-7.355 5.7561-3.8633 10.822 7.459 10.822 4.9968 0 8.2655 1.2962 7.2813 2.8887-3.172 5.135 13.02 12.844 28.766 13.693 10.273 0.55423 17.507 2.8307 21.947 6.9062 3.643 3.3436 11.384 7.0522 17.201 8.2422 11.416 2.3351 24.176 12.183 24.176 18.658 0 2.2035 1.2633 4.0078 2.8067 4.0078 1.5433 0 4.6086 1.8021 6.8125 4.0059 5.6681 5.6682 23.787 9.0177 22.842 4.2226-0.4008-2.0331 0.9711-3.6973 3.0488-3.6973s3.9058 1.3613 4.0644 3.0234c0.1588 1.6621 1.3874 3.7021 2.7285 4.5332 1.3412 0.83105 2.8717 6.5592 3.4024 12.73 0.8111 9.43-0.5741 12.596-8.6816 19.834-13.435 11.994-18.984 36.559-10.856 48.055 8.3266 11.777 18.775 32.851 23.268 46.928 0.9041 2.8338 6.8546 7.8099 13.223 11.059 14.356 7.3242 20.318 17.729 17.844 31.145-3.0885 16.743-5.7349 36.902-5.6856 43.305 0.026 3.3242-1.7315 12.165-3.9023 19.645-2.1708 7.4795-4.8672 20.398-5.9942 28.709-1.1269 8.3106-3.6165 16.109-5.5312 17.33-2.4464 1.5602-2.2485 2.235 0.666 2.2676 2.9256 0.0326 3.2507 1.1577 1.1035 3.8223-4.9159 6.1009 1.1512 16.887 12.008 21.348 9.0993 3.7369 20.514 3.6171 20.514-0.21484 0-0.86944-2.3784-3.4314-5.2871-5.6934-4.9583-3.8558-4.8281-4.5017 2.1035-10.363 5.1904-4.3892 6.3163-6.9191 3.7774-8.4883-2.4026-1.4847 1.8953-6.9954 12.803-16.412 9.031-7.7968 17.704-14.176 19.273-14.176 4.702 0 11.213-9.6202 10.272-15.178-0.6621-3.9093 0.825-4.8862 6.0449-3.9688 6.7271 1.1822 22.895-11.691 37.736-30.049 2.9976-3.7077 9.189-9.1473 13.76-12.086 4.5709-2.9386 8.3106-7.2443 8.3106-9.5703 0-2.3261 4.4204-5.7216 9.8222-7.5449 11.062-3.7322 24.621-20.993 27.725-35.289 1.1254-5.1843 8.097-16.514 15.492-25.178 9.4792-11.105 13.445-18.449 13.445-24.895 0-6.6138-1.1743-8.6912-4.248-7.5117-2.3369 0.89694-6.6283-0.99866-9.5352-4.2109-2.9068-3.2123-7.7484-5.8398-10.758-5.8398-3.0093 0-14.1-4.7429-24.648-10.541-15.561-8.5534-19.984-9.837-23.445-6.8008-2.3464 2.0582-1.8342 0.81696 1.1387-2.7578 3.5367-4.2526 4.2937-7.1866 2.1875-8.4883-1.7703-1.094-3.2188-4.3268-3.2188-7.1836 0-7.0818-10.379-15.418-22.07-17.727-11.6-2.2904-32.197-18.56-32.273-25.494-0.03-2.7242-1.7544-4.8895-3.8321-4.8125-10.351 0.38441-14.559-1.0572-12.555-4.3008 1.3467-2.179 0.829-2.6684-1.3808-1.3027-1.9462 1.2028-2.7571 3.4527-1.8008 5 2.0042 3.2431-0.4063 3.4668-9.916 0.91797-3.7211-0.99757-5.8915-3.229-4.8223-4.959s0.6167-2.325-1.0058-1.3223c-1.6226 1.0027-6.5932-0.0674-11.045-2.377-4.4517-2.3095-8.0937-2.919-8.0937-1.3555 0 1.5636-1.439 2.8418-3.1992 2.8418s-2.2175-1.5906-1.0157-3.5352c1.5322-2.4793 0.4566-2.8521-3.5996-1.25-3.1813 1.2566-8.3652 2.8092-11.522 3.4492-3.1562 0.64007-8.3097 3.9229-11.451 7.2949-6.6056 7.0902-6.9671 7.163-14.742 3.002-4.0193-2.1523-7.6645-2.1553-11.67-0.0117-12.149 6.501-19.194-2.5296-18.895-24.219 0.1774-12.849-3.5216-15.002-22.234-12.939-9.448 1.0412-10.813 0.53865-7.9415-2.9219 1.9074-2.2983 2.701-4.9475 1.7618-5.8867-0.9393-0.93925 0.4882-5.9528 3.1718-11.143 5.4569-10.553 4.1919-15.264-3.6914-13.754-2.902 0.55585-6.8293 1.115-8.7265 1.2422-1.8973 0.12723-4.2584 3.4572-5.2481 7.4004-1.2342 4.9168-4.6513 7.74-10.873 8.9844-12.432 2.4862-16.939 0.17066-22.504-11.557-5.9812-12.604-6.0577-22.564-0.2364-30.875 6.6292-9.4629 25.013-19.936 31.856-18.146 3.8097 0.99637 5.9238 0.0323 5.9238-2.7012 0-4.6288 6.0559-5.3056 20.904-2.3359 6.9637 1.3929 10.646 4.4818 13.51 11.334 4.6355 11.089 12.583 18.591 15.203 14.352 2.1919-3.5464-2.6817-17.186-7.1211-19.93-6.0712-3.7521-3.291-16.129 5.2344-23.303 12.489-10.509 13.506-13.564 7.5996-22.812-4.9745-7.789-4.9829-8.0957-0.125-4.248 4.4384 3.5152 5.246 3.5152 5.3028 0 0.037-2.281 2.728-7.5478 5.9785-11.703 3.2504-4.1553 5.9397-9.8042 5.9765-12.555 0.055-4.0834 2.2841-4.7048 12.154-3.3809 7.5331 1.0104 12.088 0.41236 12.088-1.5879 0-1.7655 3.061-3.6458 6.8008-4.1777 4.3055-0.61257 6.6445-2.9061 6.3789-6.2539-0.495-6.2339 12.602-7.5487 15.039-1.5098 1.0461 2.5926 1.615 2.3573 1.8105-0.75391 0.2531-4.0293 0.6089-4.0293 3.2129 0 2.5443 3.937 2.9364 3.8806 2.9766-0.42187 0.025-2.7247-2.7776-8.1639-6.2285-12.088-3.451-3.924-5.4093-5.4351-4.3536-3.3574 3.6111 7.1063-3.7776 3.792-8.8691-3.9785-7.2774-11.106-15.164-18.465-18.574-17.328-1.6171 0.53912-8.268-4.4764-14.779-11.145-12.873-13.183-15.7-14.447-17.19-7.6914-0.7531 3.4164-4.0924 2.3264-14.576-4.7539-9.1713-6.1939-16.253-8.7984-21.75-8-4.4832 0.65113-7.5145 0.15381-6.7364-1.1055 0.7782-1.2593-0.9771-3.6277-3.9004-5.2637-3.4752-1.945-5.3273-6.6277-5.3515-13.527-0.025-7.2873 0.9827-9.7051 3.2617-7.8144 1.815 1.5058 4.1954 1.8437 5.2891 0.75 1.0936-1.0937 1.9882 0.36975 1.9882 3.252 0 3.8597 1.5879 4.7366 6.0254 3.3281 4.5216-1.4352 5.5939-0.79072 4.2989 2.584-0.9493 2.4732-3.7468 5.2729-6.2168 6.2207-5.6382 2.1635-2.4639 7.8129 4.3828 7.8008 2.8105-0.005 10.927 3.0565 18.039 6.8008 10.99 5.7864 13.341 6.1481 15.666 2.418 1.5047-2.4137 1.8396-5.8131 0.7441-7.5547-1.0956-1.7416-1.6035-5.5186-1.1309-8.3926 0.9351-5.6856-20.702-29.366-27.217-29.787-2.2082-0.14287 0-1.4607 4.918-2.9277 6.5832-1.9657 10.224-1.4993 13.838 1.7715 2.6972 2.441 6.35 4.4375 8.1191 4.4375s4.0003 2.04 4.9571 4.5332 3.7783 4.5332 6.2715 4.5332c2.5468 0 3.8534 1.774 2.9804 4.0488-0.8543 2.2269 0.5315 5.7818 3.0821 7.8984s3.7629 5.2635 2.6933 6.9941c-1.0738 1.7376-0.4895 2.2486 1.2871 1.1504 1.7767-1.0982 8.4768 3.1968 14.889 9.5449 11.645 11.529 29.503 22.394 32.266 19.631 0.8042-0.80416-0.3304-6.542-2.5215-12.752-4.9863-14.132-2.8634-26.414 4.918-28.449 5.1822-1.3551 5.4312-2.3277 1.9961-7.8281-2.1574-3.4549-5.0665-6.2812-6.4648-6.2812s-8.4008-4.801-15.561-10.668c-15.787-12.937-40.194-25.673-45.383-23.682-2.0831 0.79943-4.5393-0.50761-5.459-2.9043-1.404-3.6573 3.37-4.2107 29.711-3.4473 17.261 0.5003 32.52 1.6125 33.912 2.4727 1.3916 0.86014 4.3635 0.4313 6.6035-0.95313 1.6001-0.98893 1.582-1.9565 0.2011-2.8789a365.64 362.86 0 0 0 -29.668 -5.3808c-15.087-1.2908-34.648-2.0673-56.488-2.0293zm4.7871 7.5273c1.0499-0.0432 2.2471 0.14945 3.3379 0.58594v-0.002c2.4108 0.9647 1.6945 1.6811-1.8262 1.8262-3.1857 0.13122-4.971-0.58174-3.9668-1.5859 0.5021-0.50203 1.4052-0.781 2.4551-0.82422zm-46.338 12.025c1.2203-0.0474 2.9662 1.5612 5.3223 4.7832 2.3009 3.1468 8.6087 5.3409 16.506 5.7441 13.099 0.66878 25.25 7.2949 13.377 7.2949-3.3243 0-7.3904 1.3474-9.0371 2.9941-1.9773 1.9772-5.3257 1.3611-9.8594-1.8144-3.7757-2.6447-9.5001-4.1196-12.721-3.2774-4.8011 1.2554-5.8555-0.0507-5.8555-7.252 0-5.6154 0.6986-8.4117 2.2676-8.4727zm-35.688 14.801c1.7602 0 3.1992 1.3594 3.1992 3.0215s-0.5991 3.0215-1.332 3.0215-2.1739-1.3594-3.2012-3.0215c-1.0272-1.6621-0.4261-3.0215 1.334-3.0215zm-11.648 1.5469c1.7719-0.0899 2.7597 0.97414 2.7597 3.0801 0 5.1364-0.1735 5.1935-5.541 1.791-3.2453-2.0573-3.0978-2.9138 0.7559-4.3926 0.757-0.29053 1.4347-0.44856 2.0254-0.47851zm-27.2 1.77c0.4808-0.0356 1.8491 0.60853 4.2129 1.8242 3.3243 1.7095 8.085 2.5084 10.578 1.7754 4.0292-1.1846 4.0292-0.97657 0 1.873-6.1299 4.3352-7.6448 4.1261-12.475-1.7285-2.0855-2.5282-2.9345-3.6984-2.3165-3.7441zm56.463 0.2832c0.3153 0.0622 0.1807 0.6041-0.4336 1.627-1.2269 2.0432-0.7603 6.4616 1.0372 9.8203 4.0773 7.6184 2.5096 7.8079-4.1075 0.49609-4.7579-5.2574-4.7511-5.8767 0.1114-9.8223 1.837-1.4906 2.9872-2.201 3.3925-2.1211zm-30.268 9.4199c1.0102 0.0495 2.7339 0.35674 5.2168 0.91211 4.9863 1.1154 9.6316 2.516 10.324 3.1133 3.0326 2.6154-10.776 0.68735-14.857-2.0742-2.0692-1.4002-2.3673-2.0337-0.6836-1.9512zm40.475 5.1113c1.3851 0 2.5175 1.2797 2.5175 2.8438 0 1.564-1.1324 3.5445-2.5175 4.4004-1.3851 0.85589-2.5196-0.42371-2.5196-2.8438 0-2.42 1.1345-4.4004 2.5196-4.4004zm-33.108 6.2676c0.3915 0.0115 0.7167 0.12872 0.9493 0.36133 0.9305 0.93048-0.7462 2.619-3.7266 3.7539-4.307 1.6401-4.6538 1.2932-1.6914-1.6914 1.5374-1.549 3.2943-2.4584 4.4687-2.4238zm-27.476 3.1856c1.6432-0.0203 3.399 0.15791 4.8691 0.54101 2.9401 0.76621 1.2656 1.4442-3.7207 1.5059-4.9862 0.0616-7.3916-0.56477-5.3457-1.3926 1.023-0.41382 2.554-0.63403 4.1973-0.6543zm-7.2324 16.199c4.6263 0.0807 5.4845 0.94738 3.1992 2.9375-1.9846 1.728-5.4711 5.1826-7.7481 7.6758s-3.279 2.8335-2.2265 0.75586c3.7086-7.3213-1.8048-10.432-8.5645-4.832-6.3668 5.2748-6.391 5.2664-1.1992-0.46094 2.9151-3.2158 9.3595-5.9454 14.322-6.0644 0.8164-0.0196 1.5559-0.0232 2.2168-0.0117zm237.33 2.6191c-0.6395-0.003-1.2575 0.0252-1.8457 0.0879-8.1924 0.87338-15.03 4.873-8.33 4.873 2.0372 0 2.8728 1.3452 1.8574 2.9883-1.0425 1.6869 0.1155 2.2343 2.6601 1.2578 2.4784-0.95109 6.9689-0.29755 9.9786 1.4531 6.9047 4.0162 15.153 4.241 17.48 0.47461 2.4278-3.9282-12.207-11.083-21.801-11.135zm-167.77 0.49609c0.9544 0.054 1.9182 0.36485 2.959 0.90039 2.9485 1.5175 7.061 2.1493 9.1386 1.4043 2.0777-0.74497 3.7774 0.1194 3.7774 1.9199s2.04 3.2734 4.5332 3.2734c4.0371 0 5.8692 3.6023 3.7773 7.4258-0.4155 0.75943 1.7956 3.2448 4.9121 5.5234s5.666 7.7776 5.666 12.219c0 6.1897 1.4993 8.0956 6.4219 8.166 5.8325 0.0834 5.9344 0.37572 1.1094 3.1856-2.9217 1.7015-6.8928 2.1175-8.8242 0.92383-2.2731-1.4048-2.8974-0.57084-1.7715 2.3633 1.4757 3.8454 0.019 4.0737-9.6016 1.5059-6.2371-1.6648-13.798-2.0839-16.801-0.93164-5.209 1.9988-5.1947 2.2869 0.2891 6.2969 3.1612 2.3116 4.7303 5.2209 3.4863 6.4648-1.244 1.244-2.2617 0.44857-2.2617-1.7676s-0.8946-3.1347-1.9883-2.041c-1.0936 1.0936-3.6928 0.5741-5.7754-1.1543-2.6176-2.1715-4.3856-2.1736-5.7265-0.004-2.9879 4.8346-10.026-3.2036-8.3653-9.5547 1.4609-5.5863 12.789-7.6724 12.789-2.3555 0 1.6621 1.439 3.0215 3.1992 3.0215 1.7603 0 2.4192-1.2652 1.4629-2.8125s-0.1472-3.7973 1.7988-5c2.2098-1.3657 2.7296-0.87822 1.3829 1.3008-1.2639 2.045-0.28 3.4902 2.3769 3.4902 2.4932 0 5.3124-1.2622 6.2656-2.8047 2.2539-3.647-8.1833-6.9405-14.416-4.5488-3.0187 1.1584-7.9855-1.3423-13.27-6.6816-4.6449-4.6932-9.4167-8.232-10.604-7.8633-1.1868 0.3687-1.3831-1.3449-0.4375-3.8086s2.8121-3.8044 4.1484-2.9785c1.3364 0.82591 5.9207-2.6461 10.188-7.7168 4.5177-5.3687 7.2967-7.5233 10.16-7.3613zm-42.877 2.4707c0.8042 0.0796 1.334 0.72604 1.334 1.8262 0 1.7602-1.3594 3.2012-3.0215 3.2012s-3.0215-0.59913-3.0215-1.332c0-0.73291 1.3594-2.1739 3.0215-3.2012 0.6233-0.38522 1.205-0.54191 1.6875-0.49415zm-16.799 5.1797c3.6909-0.0495 3.772 0.42169 0.4336 2.5371-2.6436 1.6751-2.9867 3.2875-0.9649 4.5371 1.7247 1.0659 3.9911 0.55639 5.0352-1.1328s3.2578-3.0723 4.9199-3.0723 2.2395 1.2651 1.2832 2.8125c-0.9562 1.5474-0.4993 3.5814 1.0156 4.5176 1.515 0.93623 3.5353-0.33082 4.4883-2.8144 2.249-5.8594 7.9668-5.8456 7.9668 0.0195 0 2.4932-1.5862 4.5312-3.5254 4.5312-1.9391 0-2.5098 1.0176-1.2656 2.2617 1.2442 1.2442 4.1917-0.37388 6.5488-3.5977 2.3572-3.2238 4.2852-4.1767 4.2852-2.1172s-3.7397 7.054-8.3106 11.1c-7.0289 6.2212-7.6113 7.8239-3.7773 10.387v-0.002c3.5297 2.3595 2.5263 3.0312-4.5332 3.0312-5.9052 0-7.6982-0.86841-5.1445-2.4883 3.1597-2.0042 3.0689-3.1919-0.4629-6.123-3.1629-2.625-4.6964-2.6921-5.5117-0.24609-0.8154 2.446-3.4693 2.3238-9.5254-0.43555l-8.3946-3.8242 6.9649-4.1621 6.9648-4.1621-6.8047 1.418c-3.7421 0.78024-6.0407 0.18681-5.1093-1.3203 0.9313-1.5071-0.086-2.7888-2.2618-2.8477-5.3429-0.14447 9.9479-8.7296 15.686-8.8066zm5.5898 15.082c-1.4773 0.0314-1.3372 1.4639 1.0918 4.0918 2.1432 2.3187 5.0623 3.5088 6.4864 2.6445 1.424-0.8643 0.7433-2.741-1.5118-4.1699-2.7899-1.7678-4.9173-2.5908-6.0664-2.5664zm118.4 2.9609c0.5392-0.0583 0.999 0.0545 1.3183 0.39063 0.5531 0.58204-0.8972 2.8119-3.2226 4.9551s-4.2285 2.5632-4.2285 0.9336c0-2.5498 3.7963-6.0265 6.1328-6.2793zm-76.643 0.0332c-1.9416 0.0529-0.8904 2.0929 2.3359 4.5332 6.6594 5.0368 10.756 5.699 10.756 1.7383 0-2.9066-7.3506-6.4277-13.092-6.2715zm-15.113 1.2441c0.5514-0.0282 1.3509 0.1423 2.3594 0.5293 2.5794 0.98987 4.6894 2.3331 4.6894 2.9863 0 2.4474-5.7584 1.0727-7.5332-1.7988-0.6616-1.0707-0.4345-1.6698 0.4844-1.7168zm59.443 5.8555c-0.2723-0.007-0.6245 0.11618-1.0528 0.38086-1.643 1.0154-2.9863 3.1254-2.9863 4.6895 0 4.347 2.1648 3.3897 4.1738-1.8457 0.774-2.0169 0.6821-3.204-0.1347-3.2246zm-252.94 10.949c-3.1173-0.0772-6.8497 1.123-9.5918 3.3359a365.64 362.86 0 0 0 -3.7188 4.8535c-0.05 0.46091 0.3939 0.45248 1.3633-0.12891 1.9628-1.1772 4.4067-0.78605 5.4297 0.86914 1.2012 1.9439 3.8812 1.748 7.5684-0.55469 3.1395-1.9607 5.0364-4.653 4.2148-5.9824-0.9729-1.5741-2.9486-2.3352-5.2656-2.3926zm549.77 1.2539c-0.4992 0.34492-0.3753 1.5792 0.4083 3.6211 1.5693 4.0894 0.8376 4.7678-3.3926 3.1445-3.9172-1.5031-4.9413-0.887-3.7383 2.248 0.9113 2.3747-0.19 5.0256-2.4492 5.8926-5.1191 1.964-2.4465 14.035 3.1074 14.035 2.1777 0 4.5817-2.3804 5.3418-5.2891 1.04-3.9797 1.4686-3.6052 1.7324 1.5117 0.524 10.163 0.854 10.991 6.0957 15.355 4.3733 3.6414 4.3284 3.866-0.457 2.3613-6.7642-2.1269-6.7248-1.9521 2.2676 10.236 4.1553 5.6325 7.5547 12.731 7.5547 15.775 0 5.1528-0.6133 5.2161-8.8946 0.93359-9.6197-4.9749-12.386-3.1452-11.982 7.9199 0.1425 3.9063-0.7366 12.306-1.9531 18.666-1.9604 10.251-1.5704 11.453 3.4414 10.578 3.1096-0.54318 5.8545 0.71173 6.0996 2.7891 0.245 2.0774 0.6163 4.6238 0.8242 5.6582s2.7573 0.0155 5.666-2.2656c4.7932-3.759 4.8998-3.6526 1.1406 1.1406-2.2811 2.9087-3.0909 5.2891-1.7988 5.2891 1.2922 0 0.096 2.4897-2.6582 5.5332-2.7544 3.0435-4.2467 6.2962-3.3164 7.2266 2.0919 2.0918-14.136 13.935-18.295 13.352-1.6599-0.233-3.0355 1.6162-3.0567 4.1094-0.021 2.4932-2.6388 9.292-5.8164 15.109-3.1775 5.8174-5.4916 15.109-5.1425 20.646 0.349 5.5379-0.4344 9.4071-1.7422 8.5996-1.3078-0.80749-2.3789 7.5809-2.3789 18.641 0 14.371 1.068 19.897 3.7421 19.365 2.058-0.40887 5.634 3.7826 7.9454 9.3145 5.9316 14.196 18.945 23.961 26.525 19.904 3.2094-1.7177 8.2347-2.3605 11.168-1.4297 2.9332 0.93078 7.9816-0.30969 11.219-2.7578 7.636-5.7751 13.439-5.8239 13.439-0.11133 0 2.582 2.7168 4.5332 6.3106 4.5332 5.6945 0 6.1085 1.1871 4.2519 12.176-1.1438 6.7703-0.4731 18.775 1.5098 27.041 3.0024 12.515 2.8198 16.205-1.1563 23.334-2.7959 5.0136-5.8463 22.029-7.4765 41.709-1.5144 18.283-3.7457 36.303-4.959 40.043-2.8455 8.7714-0.8355 8.5674 3.5664 1.6074a365.64 362.86 0 0 0 44.133 -168.29c-0.049-12.655-0.8342-24.789-2.4179-35.852-2.4349-17.005-5.2878-34.998-6.3418-39.984-1.0541-4.9864-2.1851-11.596-2.5118-14.689-0.3266-3.0931-3.0937-7.0229-6.1484-8.7324-4.5581-2.5506-5.2126-2.2201-3.6523 1.8457 1.0456 2.725 1.3979 4.9551 0.7831 4.9551-1.2571 0-13.803-20.758-13.803-22.838 0-3.5019 6.4353-0.66623 11.971 5.2754 3.9684 4.2595 6.1621 5.151 6.1621 2.5039 0-10.299-32.051-81.646-36.678-81.646-1.21 0-3.1156-2.8833-4.2344-6.4082-2.5276-7.9646-20.153-33.261-21.934-31.48-0.7183 0.71834 1.7368 6.2279 5.4551 12.244 5.5883 9.0422 6.156 12.082 3.2734 17.535-1.9813 3.7486-2.8287 4.2974-1.9629 1.2715 0.8381-2.9292-1.8336-11.336-5.9355-18.684-4.1019-7.3472-6.693-15.352-5.7578-17.789 0.3231-0.8421 0.4433-1.7359 0.4043-2.5918a365.64 362.86 0 0 0 -3.4981 -4.1934zm-287.45 4.7773c2.5912 0 4.711 1.3594 4.711 3.0215s-1.2799 3.0234-2.8438 3.0234-3.6837-1.3613-4.7109-3.0234c-1.0273-1.6621 0.2525-3.0215 2.8437-3.0215zm12.088 0c0.7329 0 2.1739 1.3594 3.2012 3.0215 1.0272 1.6621 0.4262 3.0234-1.334 3.0234-1.7601 0-3.1992-1.3613-3.1992-3.0234s0.5991-3.0215 1.332-3.0215zm27.658 4.7148c1.2937 0.0406 2.782 0.544 4.5684 1.5 3.1497 1.6857 5.7266 3.3559 5.7266 3.7129 0 0.35697-3.9637 0.65039-8.8086 0.65039-6.6244 0-8.0445-0.92195-5.7266-3.7148 1.2362-1.4895 2.5769-2.2007 4.2402-2.1484zm18.756 1.4434c0.4059-0.0228 0.5416 0.80598 0.5605 2.4766 0.027 2.3964 1.9312 3.3778 4.5801 2.3613 2.4933-0.95673 4.4847-0.76279 4.4258 0.43164-0.059 1.1943-1.8467 5.306-3.9727 9.1367l-3.8652 6.9648-3.3008-7.2441c-2.0016-4.3931-2.241-8.9176-0.6074-11.498 1.0973-1.7333 1.7738-2.6061 2.1797-2.6289zm-100.74 5.1836c1.8125-0.0725 3.6987 0.92893 6.7969 2.959 3.7993 2.4892 6.9082 5.021 6.9082 5.625 0 0.6039-5.916 0.84006-13.146 0.52539-12.786-0.55636-12.976-0.70952-6.9082-5.623 2.7982-2.266 4.5371-3.4138 6.3496-3.4863zm86.486 13.207c1.0499-0.0432 2.2472 0.14945 3.3379 0.58594 2.4108 0.9647 1.6945 1.6792-1.8261 1.8242-3.1857 0.13121-4.9711-0.58174-3.9668-1.5859 0.5021-0.50204 1.4052-0.781 2.455-0.82422zm-314.53 2.6387c-1.6621 0-3.0215 1.439-3.0215 3.1992s1.3594 2.3592 3.0215 1.332 3.0235-2.4662 3.0235-3.1992c0-0.73296-1.3614-1.332-3.0235-1.332zm-29.047 13.23c-0.3613-0.007-0.7564 0.11039-1.1719 0.36719-1.6621 1.0272-3.0235 3.9092-3.0235 6.4023s1.3614 3.6912 3.0235 2.6641c1.6621-1.0272 3.0215-3.9072 3.0215-6.4004 0-1.8698-0.766-3.0123-1.8496-3.0332zm12.602 2.8965c-0.4825-0.0478-1.0622 0.10895-1.6855 0.49415-1.6621 1.0272-3.0235 2.4662-3.0235 3.1992 0 0.73296 1.3614 1.334 3.0235 1.334s3.0215-1.441 3.0215-3.2012c0-1.1001-0.5318-1.7466-1.336-1.8262zm586.28 15.109c-0.4825-0.0478-1.0642 0.10894-1.6875 0.49414-1.6621 1.0272-3.0215 2.4682-3.0215 3.2012 0 0.73296 1.3594 1.332 3.0215 1.332s3.0234-1.441 3.0234-3.2012c0-1.1001-0.5317-1.7466-1.3359-1.8262zm-613.66 6.2422c-0.7876 0.0848-1.7646 0.8735-3.168 2.3281-0.1925 0.19963-0.398 0.44752-0.6113 0.72071a365.64 362.86 0 0 0 -16.502 38.205c-1.4493 4.7141-2.3672 8.6019-2.3672 10.688 0 3.7304-1.2732 7.235-2.8301 7.7891-0.6624 0.23569-1.3781 1.2758-2.1231 2.9102a365.64 362.86 0 0 0 -6.291 24.455c-4.3596 23.332-8.0028 55.852-7.2773 74.123 0.2142 5.4019 1.75 9.8223 3.4121 9.8223 3.2352 0 3.281-0.38023 3.6308-30.221 0.2587-22.082 3.3562-30.828 10.014-28.273 5.1588 1.9797 6.4917-9.4168 1.4649-12.523-5.6283-3.4783-2.7341-40.799 3.164-40.799 1.3528 0 2.8947 3.061 3.4258 6.8008 0.8271 5.8232 1.9425 4.9424 7.7656-6.1367 6.9338-13.191 9.2412-33.904 3.7774-33.904-1.6621 0-3.0663 3.7397-3.1192 8.3106-0.053 4.5708-2.0929 10.949-4.5332 14.176-3.7063 4.9002-4.4355 5.058-4.4355 0.95313 0-8.1193 6.0528-21.489 12.412-27.414 4.0036-3.7307 5.3292-7.6072 4.0137-11.752-1.2994-4.0937-0.844-5.4932 1.3476-4.1387 2.109 1.3034 2.6255 0.25766 1.4219-2.8789-0.8809-2.2954-1.5791-3.3493-2.5918-3.2402zm635.7 16.95c4.1492 0.0266 14.489 17.911 17.016 29.434 0.4556 2.0776 0.268 3.7793-0.416 3.7793-1.3767 0-2.1541-3.3016-1.6016-6.8008 0.3294-2.0868-3.3489-2.7819-19.055-3.6035-3.1976-0.16742-6.4171-2.1089-7.1523-4.3144-1.9689-5.9072 5.6811-18.53 11.209-18.494zm22.375 27.785c0.6229 0.079 1.5173 0.66575 2.6015 1.75 1.967 1.9667 2.8725 4.278 2.0137 5.1367-2.0169 2.0169-5.5898-1.556-5.5898-5.5898 0-0.9468 0.3516-1.3758 0.9746-1.2969zm-52.361 5.4297c-1.6621 0-3.0234 1.439-3.0234 3.1992s1.3613 2.3612 3.0234 1.334c1.6622-1.0272 3.0215-2.4682 3.0215-3.2012 0-0.73296-1.3593-1.332-3.0215-1.332zm-291.17 31.338c-2.5151-0.0421-4.5886 0.48176-6.789 1.4844-8.744 3.9842-9.4879 8.1914-1.4493 8.1914 3.2023 0 5.1627-1.0691 4.3555-2.375s1.4113-2.373 4.9317-2.373c4.0685 0 5.6148 1.2705 4.2441 3.4883-1.3198 2.1356-0.83 2.6697 1.2617 1.377 1.8794-1.1615 7.1887-0.0668 11.799 2.4336 4.6102 2.5005 10.763 4.6015 13.672 4.668 10.418 0.23814 4.9756-4.5647-13.127-11.584-9.2866-3.6009-14.707-5.2404-18.898-5.3106zm60.133 21.334c-1.4636-0.0283-2.7229 0.96593-3.4472 2.8535-0.9568 2.4936-3.666 3.7946-6.0215 2.8906-2.3555-0.90396-4.2832-0.0695-4.2832 1.8535 0 2.33 4.2847 3.0039 12.844 2.0215 7.064-0.81082 15.304-1.5588 18.311-1.6621 3.05-0.10486 4.5918-1.6031 3.4883-3.3887-1.088-1.7603-4.9072-2.8218-8.4883-2.3594-3.5811 0.46237-8.2212-0.22278-10.311-1.5234-0.7189-0.44753-1.4265-0.67268-2.0918-0.68555zm-28.861 5.0488c-1.1081 0-2.2167 0.70691-3.6269 2.1172-2.8205 2.8206-2.0142 3.625 3.6269 3.625s6.4455-0.80444 3.625-3.625c-1.4102-1.4103-2.5169-2.1172-3.625-2.1172zm60.44 0c-1.1081 0-2.2167 0.70691-3.627 2.1172-2.8205 2.8206-2.0142 3.625 3.627 3.625 5.6411 0 6.4474-0.80444 3.6269-3.625-1.4102-1.4103-2.5188-2.1172-3.6269-2.1172zm-424.81 18.871c-0.3956 0.0476-0.8626 0.34501-1.4043 0.88672-4.3635 4.3635-0.2015 29.06 4.5879 27.223 2.4348-0.93441 3.1863 1.0216 2.2578 5.8789-1.5754 8.2412 2.7119 9.5756 8.4707 2.6367 3.2175-3.877 2.5303-6.0222-4.1641-13.01-4.9005-5.1151-8.0156-11.766-8.0156-17.115 0-4.534-0.5456-6.6428-1.7324-6.5zm0.8984 32.803c-0.4527-0.0247-1.1455 0.80757-2.1875 2.4199-1.6112 2.4932-2.9524 6.3145-2.9766 8.4902-0.025 2.1758 1.3145 3.1151 2.9766 2.0879s2.9988-4.8487 2.9746-8.4902c-0.021-3.0278-0.2051-4.476-0.7871-4.5078zm14.772 6.5996c-1.0837 0.048-1.8496 1.2539-1.8496 3.1973 0 2.5912-1.4083 4.7109-3.1289 4.7109-2.121 0-2.0857 1.947 0.1074 6.0449 1.7791 3.3242 4.5467 6.0449 6.1504 6.0449 3.8618 0 3.7674-17.25-0.1074-19.645-0.4156-0.25681-0.8107-0.36952-1.1719-0.35352zm-37.772 9.3125c-0.079-0.0202-0.1549-0.008-0.2285 0.0371-1.2235 0.75636-1.7643 1.5952-1.5137 6.2754a365.64 362.86 0 0 0 0.836 9.0332c0.4502 4.0232 1.0593 9.0808 1.873 15.738 1.2696 10.388 3.6822 18.887 5.3613 18.887 1.6792 0 2.308-3.0588 1.3985-6.7988-0.9096-3.7401-2.5886-15.273-3.7325-25.629-1.0723-9.7087-2.8101-17.24-3.9941-17.543zm19.949 4.416c-1.0795 0.1571-2.7022 3.6666-5.4219 10.369-5.9002 14.541-5.5608 35.186 0.5782 35.186 1.4771 0 3.7045 0.26274 4.9511 0.58398 1.2467 0.32123 3.1259-3.4185 4.1758-8.3106 1.6076-7.4901 1.9666-6.7065 2.2676 4.957 0.1967 7.6179 1.2849 14.777 2.418 15.91v0.002c1.1333 1.133 3.0091 0.52556 4.168-1.3496 1.4838-2.4005 2.5926-2.1916 3.7461 0.70898 1.2831 3.2265 1.6796 3.1382 1.8301-0.41211 0.1057-2.4932-1.057-6.5079-2.584-8.9219s-2.0172-5.6196-1.0879-7.123 2.8601-0.8879 4.289 1.3672c1.9997 3.1557 2.607 3.2071 2.6426 0.22461 0.025-2.1311-3.0122-5.1042-6.7519-6.6074l-6.8008-2.7324 6.8008-0.1914c3.7397-0.10547 6.7988-2.044 6.7988-4.3066 0-2.7048-2.4669-3.6413-7.2012-2.7363-8.0703 1.5428-11.568-2.3977-12.426-13.998-0.641-8.6678-1.1671-12.797-2.3906-12.619zm150.49 3.2461c-4.4633 0-0.5709 5.522 6.0039 8.5176 4.1553 1.8933 7.5547 5.5103 7.5547 8.0391 0 2.5287 1.3593 4.5977 3.0214 4.5977 3.5148 0 3.9299-6.1921 0.709-10.576-2.2749-3.0964-14.502-10.578-17.289-10.578zm-120.85 19.795c-0.431 0.0234-0.9839 0.67125-1.6875 1.877-2.3405 4.0112-2.388 12.235-0.1152 19.881 0.1235 0.41553 0.9033 0.75586 1.7344 0.75586 0.831 0 1.4704-5.7798 1.4199-12.844-0.048-6.7448-0.4032-9.7214-1.3516-9.6699zm9.4942 11.262c-1.3109-0.0816-3.4734 2.3727-3.8945 5.4609-0.2078 1.5237-0.5483 4.1289-0.7559 5.791s-3.1772 3.0215-6.5996 3.0215-5.3827 1.3613-4.3555 3.0234 5.3333 3.0215 9.5684 3.0215c5.603 0 7.2267-1.2346 5.9609-4.5332-1.0488-2.7336-0.016-4.5332 2.6035-4.5332 2.5806 0 3.6519 1.805 2.6387 4.4453-1.1354 2.9586 1.7464 6.0899 8.6231 9.3691 10.289 4.9066 20.418 16.406 14.451 16.406-1.6763 0-3.0488 1.3594-3.0488 3.0215s2.7207 3.0234 6.0449 3.0234c3.3243 0 6.043 1.3594 6.043 3.0215s2.7207 3.0215 6.0449 3.0215c3.3243 0 6.0449-1.3594 6.0449-3.0215 0-5.0491 8.4679-3.3782 12.672 2.5 2.1716 3.0368 6.6392 7.0036 9.9277 8.8164 10.289 5.6712 10.892 0.90914 1.0039-7.9258-10.122-9.044-9.4812-17.16 1.0899-13.805 4.0589 1.288 8.0089-0.17786 11.988-4.4492 5.8826-6.3142 5.3458-12.336-1.0996-12.336-1.8411 0-2.4531 0.89464-1.3594 1.9883 3.6672 3.6672-4.6576 10.1-13.07 10.1-4.5793 0-10.107-2.1448-12.283-4.7676-2.1765-2.6228-10.61-8.1395-18.74-12.26-11.863-6.0115-15.656-6.7675-19.205-3.8223-3.3497 2.78-5.2721 2.8216-7.9219 0.17187-1.9241-1.924-2.3787-3.498-1.0117-3.498 1.3669 0 0.8037-2.0251-1.25-4.5-2.0538-2.4749-4.9403-3.7546-6.4141-2.8438-1.4738 0.91085-2.6797-0.01-2.6797-2.0469 0-1.2635-0.4198-1.8242-1.0156-1.8613zm17.42 5.7461c-0.7117-0.006-1.1632 1.6576-1.0566 4.2461 0.145 3.5205 0.8614 4.237 1.8261 1.8262 0.8731-2.1816 0.766-4.7868-0.2382-5.791-0.1883-0.18829-0.3671-0.27992-0.5313-0.28125zm257.59 4.8301c-1.763-0.13987-3.6737 1.1304-4.5293 3.6973-0.5543 1.6621 1.259 3.0234 4.0293 3.0234 2.7702 0 4.4699-1.6997 3.7773-3.7773-0.6239-1.8718-1.9061-2.8346-3.2773-2.9434zm-320.15 4.5996c-0.5365-0.0377-1.5764 0.20942-2.9902 0.75195-6.669 2.5594-2.3452 11.326 9.209 18.672 4.5122 2.8688 9.3834 7.1127 10.824 9.4297 2.2118 3.5567 3.0279 3.5676 5.2422 0.0723 4.0513-6.3952 3.3155-7.8671-4.9649-9.9453-4.6449-1.1656-6.8474-3.2712-5.5761-5.3281 1.1843-1.9163 0.7542-2.5667-0.9844-1.4922-3.7655 2.3273-13.851-8.1394-10.791-11.199 0.5997-0.5998 0.5677-0.9232 0.031-0.96093zm58.43 14.141c-0.634-0.0611-1.3258 0.19885-2.0019 0.875-0.9975 0.99757-0.7491 3.5362 0.5527 5.6426 1.904 3.0807 2.617 3.0827 3.6406 0.0117 1.0956-3.2867-0.2895-6.3461-2.1914-6.5293zm83.781 6.4453c-1.559 0-1.3915 1.9032 0.6464 5.7109 1.7791 3.3244 6.2463 6.0134 9.9278 5.9766 6.6225-0.0665 6.6139-0.12953-0.8614-5.9766-4.8679-3.8078-8.1538-5.7109-9.7128-5.7109zm-91.35 0.6836c-0.4825-0.0478-1.0622 0.10894-1.6855 0.49414-1.6621 1.0272-3.0234 2.4682-3.0234 3.2012 0 0.73296 1.3613 1.332 3.0234 1.332s3.0215-1.441 3.0215-3.2012c0-1.1001-0.5318-1.7466-1.336-1.8262zm-15.35 0.13672c-0.5564-0.0324-1.3481 0.15812-2.3867 0.55664-2.55 0.97823-5.3777 3.7134-6.2851 6.0781-0.965 2.5151 0.1908 4.3008 2.7871 4.3008 2.4409 0 4.4394-0.57056 4.4394-1.2656 0-0.69507 0.8315-3.4302 1.8477-6.0781 0.9104-2.3728 0.8218-3.5206-0.4024-3.5918zm130.59 11.977c-0.8429-0.0392-1.7714 0.45502-2.7969 1.4805-1.6772 1.6771-5.1457 2.2453-7.709 1.2617-3.0339-1.1642-3.9074-0.57102-2.5019 1.7031v0.002c1.7591 2.8464 6.7988 3.0854 16.389 0.7793 0.5137-0.12329 0.019-1.7028-1.0976-3.5098-0.6828-1.1049-1.4404-1.6776-2.2832-1.7168zm-114.89 5.541c-0.3557 0.00055-0.7846 0.22015-1.2441 0.67969-1.2254 1.2254-2.2445 4.5133-2.2656 7.3047-0.027 3.5208-2.1211 4.7848-6.8379 4.1289-4.5542-0.63342-6.8008 0.61388-6.8008 3.7774 0 2.5978-1.3158 4.7246-2.9258 4.7246-1.6099 0-2.1851 1.9351-1.2773 4.3008 0.941 2.4524-1.0061 5.7227-4.5313 7.6094-7.0168 3.7564-6.8342 4.5545 8.4727 36.936 7.4275 15.713 11.512 20.832 18.594 23.301 5.4213 1.8898 8.3523 1.9946 7.2813 0.26172-0.9859-1.5955-0.012-2.8519 2.1641-2.793 7.057 0.191 17.24 7.3571 24.57 17.293 3.9419 5.3433 7.7167 9.195 8.3867 8.5586 0.6699-0.63643 8.0179 6.7688 16.328 16.455 8.3102 9.6863 16.13 17.703 17.377 17.816 4.5203 0.4116 2.1205-5.5977-3.9278-9.834-6.1205-4.2872-6.1036-4.3606 1.5098-6.2715 4.605-1.1556 7.707-4.0722 7.707-7.248 0-2.9226 1.8999-8.0277 4.2227-11.344 5.3839-7.6859 3.8776-30.341-2.4844-37.371-2.6188-2.8936-4.7598-6.2321-4.7598-7.418 0-2.4799-4.8043-8.7151-13.908-18.051-3.4943-3.5832-8.02-11.615-10.057-17.848-2.0365-6.2329-4.849-11.332-6.25-11.332s-3.4439-4.08-4.5391-9.0664c-2.7975-12.737-8.4969-11.461-6.9765 1.5625 0.6824 5.8458 0.4924 10.222-0.4239 9.7246-0.9162-0.49743-5.4057-2.779-9.9765-5.0703s-8.3106-5.8784-8.3106-7.9726c0-2.0943-4.08-4.7036-9.0664-5.7988-4.9863-1.0952-9.0664-3.4703-9.0664-5.2774 0-1.1294-0.3915-1.7392-0.9844-1.7383zm122.06 1.9141c-0.7485 0.0357-1.5392 0.43341-2.4219 1.166-5.2861 4.3871-4.7873 9.4906 0.7207 7.377 2.4931-0.95673 4.5332-0.42243 4.5332 1.1875 0 1.61 1.2305 2.9258 2.7363 2.9258s1.1831-3.296-0.7187-7.3262c-1.7613-3.7322-3.2031-5.4087-4.8496-5.3301zm29.541 33.971c-1.6333 0.0992-2.3508 2.8404-0.7696 6.9609 1.0478 2.731 3.1193 4.9668 4.6036 4.9668 3.4445 0 3.3646-3.334-0.2051-8.9785-1.3387-2.1167-2.649-3.0088-3.6289-2.9492zm65.285 11.928c-2.5914 0-3.8584 1.3811-2.8144 3.0703 1.0438 1.6892 3.1656 2.2903 4.7129 1.334 4.1918-2.5906 3.4097-4.4043-1.8985-4.4043zm-10.553 3.5723c-1.6314-0.0957-2.8692 1.4277-2.8692 3.7305 0 2.6316 2.1535 4.7852 4.7852 4.7852 5.3368 0 4.4082-6.5052-1.1953-8.373-0.2467-0.0822-0.4877-0.12891-0.7207-0.14258zm-67.719 11.535c-1.0011-0.0166-1.6406 0.75017-1.6406 2.4199 0 1.3297 1.6324 4.0504 3.627 6.0449 5.7776 5.7778 8.8686 4.1991 4.7363-2.418-2.3831-3.8161-5.054-6.0192-6.7227-6.0469zm-57.898 19.121c0.8224-0.21813 2.0431 1.1718 2.9043 3.416 2.0436 5.3251 0.3022 6.263-2.6777 1.4414-1.0956-1.7726-1.3431-3.8717-0.5508-4.6641 0.099-0.099 0.2087-0.1622 0.3262-0.19336zm62.377 23.191c-1.6622 0-2.1557 3.9503-1.1329 9.0644 1.3095 6.5468 0.6589 9.0801-2.3418 9.1133-3.2731 0.0364-3.1938 0.669 0.377 2.9766 3.7981 2.4545 3.8308 2.9359 0.1992 2.9746-7.3606 0.0786-30.526 12.52-28.738 15.432 2.8472 4.6042 10.497 3.0942 20.518-4.0488 5.2429-3.737 10.212-6.8052 11.043-6.8203 0.8311-0.0148 4.6958-2.2734 8.5879-5.0176l7.0761-4.9883-6.3203-6.3223c-3.4764-3.4766-6.3203-7.6797-6.3203-9.3418s-1.3267-3.0215-2.9472-3.0215zm248.27 93.684c-6.6185 0-10.74 3.9101-7.5175 7.1328 3.045 3.045 5.9296 2.2932 9.9921-2.6016 3.1374-3.7803 2.7257-4.5312-2.4746-4.5312zm69.15 22.713c-1.1744 0.44585-2.4288 1.0041-3.7441 1.6641a365.64 362.86 0 0 0 3.7441 -1.6641zm-12.471 5.5371c-3.6158 1.1021-7.6393 1.8492-10.775 1.8848-5.1988 0.0589-14.293 2.1297-20.209 4.6016-14.932 6.2385-52.11 9.4386-57.518 4.9512-2.6878-2.2306-6.7178-2.57-11.131-0.9375l-6.916 2.5586 7.2832 5.1309 7.2832 5.1289-9.0664-0.49024c-4.9864-0.26921-11.502 0.54026-14.478 1.7969-3.8044 1.606-5.1512 1.0527-4.5332-1.8633 0.5137-2.4244-1.005-3.6486-3.6543-2.9434-13.938 3.7099-22.338 3.5107-33.084-0.78906-8.4457-3.3793-12.593-3.8141-14.041-1.4707-1.3569 2.1956-7.8173 2.6197-19.018 1.25-19.697-2.4088-19.919-2.4076-32.799 0.0918-5.3443 1.0371-9.0575 2.9542-8.3125 4.2793a365.64 362.86 0 0 0 230.97 -23.18z" fill="#008000"/>
</g>
<g id="g5725" fill-rule="evenodd">
<path id="path5414" d="m1821.2 1194a94.389 94.389 0 0 0 -94.389 94.389 94.389 94.389 0 0 0 94.389 94.389 94.389 94.389 0 0 0 94.389 -94.389 94.389 94.389 0 0 0 -94.389 -94.389zm0 188.78c-41.024 0-105 11.108-111.75 51.574-17.192 103.15-17.192 223.49 17.191 223.49s-0.0004-163.32 25.787-163.32c12.502 0 4.9384 52.362 12.894 120.34 13.221 112.97 35.562 262.77 37.854 278.08a60 60 0 0 1 1.0449 -0.3476c1.0859-29.819 8.9842-239.05 16.975-239.05 7.9899 0 15.886 209.2 16.973 239.04a60 60 0 0 1 1.0547 0.3008c2.3138-15.443 24.657-165.14 37.846-278.03 7.9619-68.148 0.3695-120.34 12.893-120.34 34.383 0-8.5963 163.32 25.787 163.32s34.383-120.34 17.191-223.49c-6.7444-40.466-70.72-51.574-111.74-51.574z" fill="#004d88"/>
<path id="path5662" d="m1496.5 1245a94.389 94.389 0 0 0 -60.601 118.94 94.389 94.389 0 0 0 118.94 60.601 94.389 94.389 0 0 0 60.601 -118.94 94.389 94.389 0 0 0 -118.94 -60.601zm58.335 179.54c-39.017 12.677-96.43 43.012-90.34 83.581 15.525 103.41 52.712 217.87 85.413 207.24 32.701-10.625-50.469-155.33-25.944-163.3 11.89-3.8632 20.878 48.274 49.451 110.47 47.483 103.35 115.02 238.92 121.93 252.77a60 60 0 0 1 0.8863 -0.6534c-8.1818-28.695-65.326-230.13-57.727-232.6 7.5988-2.469 79.755 194.05 90.011 222.1a60 60 0 0 1 1.096 -0.04c-2.5715-15.402-27.581-164.68-49.921-276.11-13.487-67.273-36.836-114.57-24.926-118.44 32.7-10.625 42.293 157.98 74.994 147.36 32.7-10.625-4.4875-125.08-52.713-217.87-18.919-36.402-83.196-27.196-122.21-14.519z" fill="#6a661f"/>
<path id="path5664" d="m1203.5 1393.9a94.389 94.389 0 0 0 -20.882 131.84 94.389 94.389 0 0 0 131.84 20.882 94.389 94.389 0 0 0 20.882 -131.84 94.389 94.389 0 0 0 -131.84 -20.882zm110.96 152.72c-33.19 24.114-78.419 70.705-60.09 107.41 46.722 93.555 117.46 190.91 145.27 170.7 27.817-20.21-95.998-132.13-75.135-147.29 10.114-7.3483 34.773 39.46 81.167 89.779 77.097 83.621 183.22 191.68 194.07 202.72a60 60 0 0 1 0.641 -0.8953c-16.649-24.762-133.24-198.68-126.78-203.37 6.4639-4.6963 135.82 159.91 154.24 183.42a60 60 0 0 1 1.0299 -0.3768c-7.205-13.853-77.12-148.1-132.8-247.17-33.615-59.813-70.436-97.576-60.305-104.94 27.817-20.21 89.043 137.18 116.86 116.97s-42.919-117.57-117.46-190.91c-29.242-28.774-87.528-0.1566-120.72 23.957z" fill="#db3253"/>
<path id="path5666" d="m970.81 1626a94.389 94.389 0 0 0 20.882 131.84 94.389 94.389 0 0 0 131.84 -20.882 94.389 94.389 0 0 0 -20.882 -131.84 94.389 94.389 0 0 0 -131.84 20.882zm152.72 110.96c-24.114 33.19-52.732 91.477-23.958 120.72 73.345 74.538 170.7 145.27 190.91 117.46 20.21-27.817-132.13-95.997-116.97-116.86 7.3481-10.114 45.265 26.783 104.94 60.303 99.164 55.704 233.49 125.68 247.22 132.83a60 60 0 0 1 0.3329 -1.0496c-23.486-18.406-188.12-147.78-183.42-154.24 4.6963-6.4639 178.58 110.11 203.37 126.78a60 60 0 0 1 0.8631 -0.6766c-11.133-10.949-119.11-117.02-202.68-194.04-50.453-46.498-97.141-71.034-89.78-81.165 20.21-27.817 127.08 102.95 147.29 75.135 20.21-27.817-77.149-98.552-170.7-145.27-36.702-18.329-83.292 26.899-107.41 60.088z" fill="#fdbe32"/>
<path id="path5668" d="m821.25 1918.7a94.389 94.389 0 0 0 60.601 118.94 94.389 94.389 0 0 0 118.94 -60.601 94.389 94.389 0 0 0 -60.601 -118.94 94.389 94.389 0 0 0 -118.94 60.601zm179.54 58.335c-12.677 39.017-21.883 103.3 14.518 122.21 92.789 48.225 207.24 85.413 217.87 52.713 10.625-32.701-155.33-50.468-147.36-74.994 3.863-11.89 51.326 11.484 118.44 24.924 111.52 22.335 260.9 47.379 276.17 49.93a60 60 0 0 1 -0.01 -1.1011c-28.024-10.248-224.57-82.415-222.11-90.015 2.4689-7.5987 203.87 49.538 232.59 57.727a60 60 0 0 1 0.6118 -0.9102c-13.972-6.9726-149.44-74.482-252.72-121.91-62.352-28.631-114.34-37.539-110.47-49.449 10.625-32.7 152.67 58.644 163.3 25.944 10.625-32.7-103.83-69.888-207.24-85.413-40.57-6.0905-70.904 51.321-83.581 90.338z" fill="#03a09f"/>
<path id="path5670" d="m769.45 2243.3a94.389 94.389 0 0 0 94.389 94.389 94.389 94.389 0 0 0 94.389 -94.389 94.389 94.389 0 0 0 -94.389 -94.389 94.389 94.389 0 0 0 -94.389 94.389zm188.78 0c-0.00006 41.024 11.108 105 51.574 111.75 103.15 17.192 223.49 17.192 223.49-17.192 0.0001-34.383-163.32 0.0003-163.32-25.787-0.0002-12.502 52.362-4.9383 120.34-12.894 112.97-13.221 262.77-35.562 278.08-37.854a60 60 0 0 1 -0.3498 -1.0441c-29.819-1.0861-239.05-8.9843-239.05-16.975-0.0001-7.9898 209.2-15.886 239.04-16.973a60 60 0 0 1 0.3006 -1.0547c-15.443-2.3138-165.14-24.657-278.03-37.846-68.148-7.9619-120.34-0.3695-120.34-12.893 0-34.383 163.32 8.5964 163.32-25.787s-120.34-34.383-223.49-17.191c-40.466 6.7443-51.574 70.719-51.574 111.74z" fill="#da3555"/>
<path id="path5672" d="m820.49 2567.9a94.389 94.389 0 0 0 118.94 60.601 94.389 94.389 0 0 0 60.601 -118.94 94.389 94.389 0 0 0 -118.94 -60.601 94.389 94.389 0 0 0 -60.601 118.94zm179.54-58.335c12.677 39.017 43.012 96.43 83.582 90.34 103.41-15.525 217.87-52.712 207.24-85.413-10.625-32.701-155.33 50.469-163.3 25.944-3.8634-11.89 48.274-20.877 110.47-49.451 103.35-47.483 238.92-115.02 252.77-121.93a60 60 0 0 1 -0.6553 -0.8849c-28.695 8.1816-230.13 65.326-232.6 57.727-2.4691-7.5987 194.05-79.755 222.1-90.011a60 60 0 0 1 -0.04 -1.096c-15.402 2.5715-164.68 27.582-276.11 49.921-67.273 13.487-114.57 36.836-118.44 24.926-10.625-32.7 157.98-42.293 147.36-74.994-10.625-32.7-125.08 4.4874-217.87 52.713-36.401 18.919-27.197 83.195-14.519 122.21z" fill="#3ca1c7"/>
<path id="path5674" d="m969.36 2861a94.389 94.389 0 0 0 131.84 20.882 94.389 94.389 0 0 0 20.882 -131.84 94.389 94.389 0 0 0 -131.84 -20.882 94.389 94.389 0 0 0 -20.882 131.84zm152.72-110.96c24.114 33.19 70.705 78.419 107.41 60.09 93.555-46.722 190.91-117.46 170.7-145.27-20.21-27.817-132.13 95.998-147.29 75.135-7.3484-10.114 39.46-34.773 89.779-81.167 83.621-77.097 191.68-183.22 202.72-194.07a60 60 0 0 1 -0.8966 -0.6391c-24.762 16.648-198.68 133.24-203.37 126.78-4.6963-6.4638 159.91-135.82 183.42-154.24a60 60 0 0 1 -0.3767 -1.03c-13.853 7.2051-148.1 77.12-247.17 132.8-59.813 33.615-97.576 70.436-104.94 60.305-20.21-27.817 137.18-89.043 116.97-116.86s-117.57 42.919-190.91 117.46c-28.774 29.242-0.1567 87.528 23.957 120.72z" fill="#e33c21"/>
<path id="path5676" d="m1201.5 3093.7a94.389 94.389 0 0 0 131.84 -20.882 94.389 94.389 0 0 0 -20.882 -131.84 94.389 94.389 0 0 0 -131.84 20.882 94.389 94.389 0 0 0 20.882 131.84zm110.96-152.72c33.19 24.114 91.477 52.732 120.72 23.958 74.538-73.345 145.27-170.7 117.46-190.91-27.817-20.21-95.997 132.13-116.86 116.97-10.114-7.348 26.783-45.265 60.303-104.94 55.704-99.164 125.68-233.49 132.83-247.22a60 60 0 0 1 -1.0502 -0.3307c-18.406 23.486-147.78 188.12-154.24 183.42-6.4639-4.6962 110.11-178.58 126.78-203.37a60 60 0 0 1 -0.6765 -0.8632c-10.949 11.133-117.02 119.11-194.04 202.68-46.498 50.453-71.034 97.141-81.166 89.78-27.817-20.21 102.95-127.08 75.135-147.29-27.817-20.21-98.552 77.149-145.27 170.7-18.329 36.702 26.898 83.292 60.088 107.41z" fill="#69243c"/>
<path id="path5678" d="m1494.2 3243.2a94.389 94.389 0 0 0 118.94 -60.601 94.389 94.389 0 0 0 -60.601 -118.94 94.389 94.389 0 0 0 -118.94 60.601 94.389 94.389 0 0 0 60.601 118.94zm58.335-179.54c39.017 12.677 103.3 21.883 122.21-14.518 48.225-92.789 85.413-207.24 52.713-217.87-32.7-10.625-50.468 155.33-74.994 147.36-11.89-3.863 11.484-51.326 24.924-118.44 22.334-111.52 47.379-260.9 49.93-276.17a60 60 0 0 1 -1.101 0.01c-10.248 28.024-82.415 224.57-90.015 222.11-7.5988-2.4689 49.538-203.87 57.727-232.59a60 60 0 0 1 -0.9102 -0.6119c-6.9726 13.972-74.482 149.44-121.91 252.72-28.631 62.352-37.539 114.34-49.449 110.47-32.701-10.625 58.644-152.67 25.944-163.3-32.7-10.625-69.888 103.83-85.413 207.24-6.0906 40.57 51.321 70.904 90.337 83.581z" fill="#ea5109"/>
<path id="path5700" d="m1818.7 3295a94.389 94.389 0 0 0 94.389 -94.389 94.389 94.389 0 0 0 -94.389 -94.389 94.389 94.389 0 0 0 -94.389 94.389 94.389 94.389 0 0 0 94.389 94.389zm0-188.78c41.024 0.0001 105-11.108 111.75-51.574 17.191-103.15 17.192-223.49-17.192-223.49-34.383-0.0001 0.0003 163.32-25.787 163.32-12.502 0.0002-4.9382-52.362-12.894-120.34-13.221-112.97-35.562-262.77-37.854-278.08a60 60 0 0 1 -1.044 0.3497c-1.0862 29.819-8.9843 239.05-16.975 239.05-7.9898 0.0001-15.886-209.2-16.973-239.04a60 60 0 0 1 -1.0547 -0.3006c-2.3138 15.443-24.657 165.14-37.846 278.03-7.962 68.148-0.3696 120.34-12.893 120.34-34.383-0.0001 8.5964-163.32-25.787-163.32-34.383-0.0001-34.383 120.34-17.191 223.49 6.7442 40.466 70.719 51.574 111.74 51.574z" fill="#004d88"/>
<path id="path5702" d="m2143.4 3244a94.389 94.389 0 0 0 60.601 -118.94 94.389 94.389 0 0 0 -118.94 -60.601 94.389 94.389 0 0 0 -60.601 118.94 94.389 94.389 0 0 0 118.94 60.601zm-58.336-179.54c39.017-12.677 96.43-43.012 90.34-83.581-15.525-103.41-52.713-217.87-85.413-207.24-32.7 10.625 50.469 155.33 25.944 163.3-11.89 3.8634-20.877-48.274-49.451-110.47-47.483-103.35-115.02-238.92-121.93-252.77a60 60 0 0 1 -0.8849 0.6552c8.1815 28.695 65.326 230.13 57.727 232.6-7.5987 2.4691-79.755-194.05-90.011-222.1a60 60 0 0 1 -1.096 0.04c2.5715 15.402 27.581 164.68 49.921 276.11 13.486 67.273 36.836 114.57 24.926 118.44-32.701 10.625-42.293-157.98-74.994-147.36-32.701 10.625 4.4873 125.08 52.713 217.87 18.919 36.401 83.195 27.196 122.21 14.519z" fill="#6a661f"/>
<path id="path5704" d="m2436.5 3095.1a94.389 94.389 0 0 0 20.882 -131.84 94.389 94.389 0 0 0 -131.84 -20.882 94.389 94.389 0 0 0 -20.882 131.84 94.389 94.389 0 0 0 131.84 20.882zm-110.96-152.72c33.19-24.113 78.419-70.705 60.09-107.41-46.722-93.555-117.46-190.91-145.27-170.7-27.817 20.21 95.998 132.13 75.135 147.29-10.114 7.3484-34.773-39.46-81.167-89.779-77.097-83.621-183.22-191.68-194.07-202.72a60 60 0 0 1 -0.6391 0.8966c16.648 24.762 133.24 198.68 126.78 203.37-6.4638 4.6963-135.82-159.91-154.24-183.42a60 60 0 0 1 -1.03 0.3767c7.2051 13.853 77.12 148.1 132.8 247.17 33.615 59.813 70.436 97.576 60.305 104.94-27.817 20.21-89.043-137.18-116.86-116.97s42.919 117.57 117.46 190.91c29.242 28.774 87.528 0.1566 120.72-23.957z" fill="#db3253"/>
<path id="path5706" d="m2669.1 2863a94.389 94.389 0 0 0 -20.882 -131.84 94.389 94.389 0 0 0 -131.84 20.882 94.389 94.389 0 0 0 20.882 131.84 94.389 94.389 0 0 0 131.84 -20.882zm-152.7-111c24.114-33.189 52.732-91.477 23.959-120.72-73.346-74.538-170.7-145.27-190.91-117.46-20.21 27.817 132.13 95.997 116.97 116.86-7.348 10.114-45.264-26.783-104.94-60.303-99.164-55.704-233.49-125.68-247.22-132.83a60 60 0 0 1 -0.3307 1.0502c23.486 18.406 188.12 147.78 183.42 154.24-4.6962 6.4639-178.58-110.11-203.37-126.78a60 60 0 0 1 -0.8632 0.6765c11.133 10.949 119.11 117.02 202.68 194.04 50.453 46.498 97.141 71.034 89.78 81.165-20.21 27.817-127.08-102.95-147.29-75.135-20.21 27.817 77.149 98.552 170.7 145.27 36.702 18.329 83.292-26.898 107.41-60.088z" fill="#fdbe32"/>
<path id="path5708" d="m2818.7 2570.3a94.389 94.389 0 0 0 -60.601 -118.94 94.389 94.389 0 0 0 -118.94 60.601 94.389 94.389 0 0 0 60.601 118.94 94.389 94.389 0 0 0 118.94 -60.601zm-179.54-58.336c12.678-39.017 21.883-103.3-14.518-122.21-92.789-48.225-207.24-85.413-217.87-52.713-10.625 32.7 155.33 50.468 147.36 74.994-3.863 11.89-51.326-11.484-118.44-24.924-111.52-22.334-260.9-47.379-276.17-49.93a60 60 0 0 1 0.01 1.101c28.024 10.248 224.57 82.415 222.1 90.015-2.4689 7.5988-203.87-49.538-232.59-57.727a60 60 0 0 1 -0.6119 0.9102c13.972 6.9726 149.44 74.482 252.72 121.91 62.352 28.631 114.34 37.539 110.47 49.449-10.625 32.701-152.67-58.644-163.3-25.944-10.625 32.7 103.83 69.888 207.24 85.413 40.57 6.0905 70.903-51.321 83.581-90.338z" fill="#03a09f"/>
<path id="path5710" d="m2870.5 2245.7a94.389 94.389 0 0 0 -94.389 -94.389 94.389 94.389 0 0 0 -94.389 94.389 94.389 94.389 0 0 0 94.389 94.389 94.389 94.389 0 0 0 94.389 -94.389zm-188.78 0c0.0003-41.025-11.108-105-51.574-111.75-103.15-17.192-223.49-17.192-223.49 17.192-0.0002 34.383 163.32-0.0004 163.32 25.787 0.0002 12.502-52.362 4.9382-120.34 12.894-112.97 13.221-262.77 35.562-278.08 37.854a60 60 0 0 1 0.3497 1.044c29.819 1.0862 239.05 8.9842 239.05 16.975 0.0001 7.9899-209.2 15.886-239.04 16.972a60 60 0 0 1 -0.3007 1.0547c15.443 2.3138 165.14 24.657 278.03 37.846 68.148 7.9619 120.34 0.3695 120.34 12.892-0.0002 34.384-163.32-8.5964-163.32 25.787-0.0001 34.383 120.34 34.383 223.49 17.191 40.466-6.7443 51.574-70.719 51.574-111.74z" fill="#da3555"/>
<path id="path5712" d="m2819.5 1921a94.389 94.389 0 0 0 -118.94 -60.601 94.389 94.389 0 0 0 -60.602 118.94 94.389 94.389 0 0 0 118.94 60.601 94.389 94.389 0 0 0 60.602 -118.94zm-179.54 58.336c-12.677-39.017-43.012-96.43-83.581-90.34-103.41 15.525-217.87 52.713-207.24 85.413 10.625 32.7 155.33-50.469 163.3-25.944 3.8634 11.89-48.274 20.877-110.47 49.451-103.35 47.483-238.92 115.02-252.77 121.93a60 60 0 0 1 0.6552 0.8848c28.695-8.1814 230.13-65.326 232.6-57.726 2.4691 7.5988-194.05 79.755-222.1 90.011a60 60 0 0 1 0.04 1.096c15.402-2.5715 164.68-27.581 276.11-49.921 67.273-13.487 114.57-36.836 118.44-24.926 10.625 32.701-157.98 42.293-147.36 74.994 10.625 32.7 125.08-4.4874 217.87-52.713 36.401-18.919 27.196-83.195 14.519-122.21z" fill="#3ca1c7"/>
<path id="path5714" d="m2670.6 1628a94.389 94.389 0 0 0 -131.84 -20.882 94.389 94.389 0 0 0 -20.882 131.84 94.389 94.389 0 0 0 131.84 20.882 94.389 94.389 0 0 0 20.882 -131.84zm-152.72 110.96c-24.113-33.19-70.705-78.419-107.41-60.09-93.555 46.722-190.91 117.46-170.7 145.27 20.21 27.817 132.13-95.998 147.29-75.135 7.3484 10.114-39.459 34.773-89.779 81.167-83.621 77.097-191.68 183.22-202.72 194.07a60 60 0 0 1 0.8966 0.639c24.762-16.648 198.68-133.24 203.37-126.78 4.6964 6.4639-159.91 135.82-183.42 154.24a60 60 0 0 1 0.3767 1.03c13.853-7.2051 148.1-77.12 247.17-132.8 59.812-33.615 97.576-70.436 104.94-60.305 20.21 27.817-137.18 89.043-116.97 116.86s117.57-42.919 190.91-117.46c28.773-29.241 0.1566-87.528-23.957-120.72z" fill="#e33c21"/>
<path id="path5716" d="m2438.5 1395.3a94.389 94.389 0 0 0 -131.84 20.882 94.389 94.389 0 0 0 20.882 131.84 94.389 94.389 0 0 0 131.84 -20.882 94.389 94.389 0 0 0 -20.882 -131.84zm-110.96 152.72c-33.189-24.114-91.477-52.732-120.72-23.959-74.538 73.345-145.27 170.7-117.46 190.91 27.816 20.21 95.997-132.13 116.86-116.97 10.114 7.348-26.783 45.264-60.303 104.94-55.704 99.164-125.68 233.49-132.83 247.22a60 60 0 0 1 1.0501 0.3307c18.406-23.485 147.78-188.12 154.24-183.42 6.464 4.6962-110.11 178.58-126.78 203.37a60 60 0 0 1 0.6765 0.8631c10.949-11.133 117.02-119.11 194.04-202.68 46.498-50.453 71.034-97.141 81.165-89.78 27.817 20.21-102.95 127.08-75.135 147.29 27.817 20.21 98.552-77.149 145.27-170.7 18.329-36.702-26.899-83.292-60.088-107.41z" fill="#69243c"/>
<path id="path5718" d="m2145.8 1245.8a94.389 94.389 0 0 0 -118.94 60.601 94.389 94.389 0 0 0 60.601 118.94 94.389 94.389 0 0 0 118.94 -60.601 94.389 94.389 0 0 0 -60.601 -118.94zm-58.336 179.54c-39.017-12.678-103.3-21.883-122.21 14.518-48.225 92.789-85.413 207.24-52.713 217.87 32.7 10.625 50.468-155.33 74.994-147.36 11.89 3.863-11.484 51.326-24.924 118.44-22.334 111.52-47.379 260.9-49.93 276.17a60 60 0 0 1 1.1009 -0.01c10.248-28.024 82.415-224.57 90.015-222.1 7.5989 2.4689-49.538 203.87-57.727 232.59a60 60 0 0 1 0.9101 0.6118c6.9727-13.972 74.482-149.44 121.91-252.72 28.631-62.352 37.539-114.34 49.449-110.47 32.701 10.625-58.644 152.67-25.944 163.3 32.7 10.625 69.888-103.83 85.413-207.24 6.0905-40.569-51.321-70.903-90.337-83.581z" fill="#ea5109"/>
<path id="path5720" d="m800.54 359.23c-19.708 44.955-34.716 89.679-39.074 121.51-0.19069 25.404 2.4736 44.781 14.316 44.781 1.3272 0 2.5965-0.20007 3.8223-0.55078 6.1719-2.7719 11.802-11.672 17.068-23.812 9.1348-30.273 9.5008-84.939 3.8672-141.93z" transform="translate(1140 1132.3)" fill="#004d88"/>
</g>
</g>
</svg>