<svg xmlns="http://www.w3.org/2000/svg" xmlns:xlink="http://www.w3.org/1999/xlink" viewBox="0 0 800 800"><defs>
    <symbol id="t1" overflow="visible" viewBox="0 0 200 200">
        <path d="M0 200h200L100 0z"/>
    </symbol>
    <symbol id="t2" overflow="visible" viewBox="0 0 200 200">
        <path d="M0 0h200L100 200z"/>
    </symbol>
    <symbol id="tree" viewBox="-4 -2 700 780">
        <a xlink:href="https://openclipart.org/detail/80/tree-by-peterm">
            <path d="M273.06 436.33h169.32s-83.54 231.62 31.81 300.87c-136.47-42.08 15.9 71.57-108.52 13.26 2.49-15.91-23.73-41.42-129.72-2.65 127.21-117.22 37.11-311.48 37.11-311.48z" style="stroke-linejoin:round;stroke:#230c0c;stroke-linecap:round;stroke-width:18.803;fill:#5b0d0d" transform="matrix(.75 0 0 .75 85 5)"/>
            <path d="M394 9.402c-73.28 0-138 26.468-177.46 66.899C101.3 80.338 9.4 149.5 9.4 234.37c.002 49.47 31.245 93.64 80.104 122.7 5.753 84.39 120.98 151.82 262.18 151.82 144.87 0 262.44-70.98 262.44-158.44 0-.43-.08-.85-.09-1.28 41.55-18.81 67.81-45.89 67.81-76.11 0-31.54-28.51-59.75-73.29-78.62 2.04-8.65 3.14-17.52 3.14-26.6 0-87.46-97.52-158.44-217.69-158.44z" style="stroke-linejoin:round;stroke:#165822;stroke-linecap:round;stroke-width:18.803;fill:#14920d" transform="matrix(.75 0 0 .75 85 5)"/>
        </a>
    </symbol></defs>
    <style>.bg1{fill:#c9f}.bg2{fill:#add8e6}</style>
    <g id="triangle"><g style="fill:red;stroke:red"><g id="tf00"><use xlink:href="#tree" id="fg" width="800" height="800" transform="matrix(.5 0 0 .5 200 400)"/></g></g>
    <g id="tfill"><g style="fill:pink;stroke:pink"><use xlink:href="#tf00" id="tf0" width="800" height="800" x="400" transform="scale(.5)"/></g>
    <g style="fill:#ff0;stroke:#ff0;stroke-width:2px"><g id="tf1"><use xlink:href="#tf0" width="800" height="800" x="400" transform="scale(.5)"/><use xlink:href="#tf0" width="800" height="800" x="200" y="400" transform="scale(.5)"/><use xlink:href="#tf0" width="800" height="800" x="600" y="400" transform="scale(.5)"/></g></g>
    <g style="fill:orange;stroke:orange;stroke-width:4px"><g id="tf2"><use xlink:href="#tf1" width="800" height="800" x="400" transform="scale(.5)"/><use xlink:href="#tf1" width="800" height="800" x="200" y="400" transform="scale(.5)"/><use xlink:href="#tf1" width="800" height="800" x="600" y="400" transform="scale(.5)"/></g></g>
    <g style="fill:#0f0;stroke:#0f0;stroke-width:8px"><g id="tf3"><use xlink:href="#tf2" width="800" height="800" x="400" transform="scale(.5)"/><use xlink:href="#tf2" width="800" height="800" x="200" y="400" transform="scale(.5)"/><use xlink:href="#tf2" width="800" height="800" x="600" y="400" transform="scale(.5)"/></g></g>
    <g style="fill:#f0f;stroke:#f0f"><g id="tf4"><use xlink:href="#tf3" width="800" height="800" x="400" transform="scale(.5)"/><use xlink:href="#tf3" width="800" height="800" x="200" y="400" transform="scale(.5)"/><use xlink:href="#tf3" width="800" height="800" x="600" y="400" transform="scale(.5)"/></g></g>
    <g style="fill:#00f;stroke:#00f;display:initial"><g id="tf5"><use xlink:href="#tf4" width="800" height="800" x="400" transform="scale(.5)"/><use xlink:href="#tf4" width="800" height="800" x="200" y="400" transform="scale(.5)"/><use xlink:href="#tf4" width="800" height="800" x="600" y="400" transform="scale(.5)"/></g></g></g>
    <use xlink:href="#tfill" width="800" height="800" x="-200" y="400"/><use xlink:href="#tfill" width="800" height="800" x="200" y="400"/></g>
</svg>